<svg xmlns="http://www.w3.org/2000/svg" xmlns:xlink="http://www.w3.org/1999/xlink" width="1024" zoomAndPan="magnify" viewBox="0 0 768 767.999994" height="1024" preserveAspectRatio="xMidYMid meet" version="1.0"><defs><clipPath id="5bcf793950"><path d="M 88 31 L 705 31 L 705 736 L 88 736 Z M 88 31 " clip-rule="nonzero"/></clipPath><clipPath id="ac8355289e"><path d="M 395.421875 0.457031 L 521.632812 0 C 519.34375 87.210938 690.359375 251.128906 704.078125 269.851562 C 633.667969 278.527344 567.816406 284.003906 521.632812 245.648438 L 521.167969 508.65625 C 520.261719 579.886719 489.621094 632.84375 452.578125 668.003906 C 449.386719 671.203125 446.183594 674.390625 442.523438 677.128906 C 394.964844 717.316406 348.324219 736.035156 284.308594 735.578125 C 221.199219 734.671875 173.640625 710.925781 133.402344 676.222656 C 103.230469 650.199219 78.988281 616.410156 65.273438 569.835938 C 35.550781 467.558594 73.957031 368.015625 159.007812 310.035156 C 160.386719 308.664062 162.210938 307.289062 164.039062 306.375 C 202.90625 279.433594 263.273438 263.453125 319.515625 272.585938 L 319.515625 401.355469 C 280.640625 391.304688 245.894531 399.984375 220.289062 421.441406 C 219.832031 421.441406 219.832031 421.898438 219.367188 422.355469 C 194.683594 443.355469 180.503906 474.414062 182.332031 509.566406 C 186.898438 572.578125 239.03125 611.84375 295.738281 609.105469 C 295.738281 609.105469 296.199219 609.105469 296.199219 609.105469 C 351.066406 603.621094 396.335938 558.878906 394.964844 498.601562 Z M 395.421875 0.457031 " clip-rule="evenodd"/></clipPath></defs><path fill="#fe2c55" d="M 423.730469 32.421875 L 549.949219 31.964844 C 547.664062 119.175781 718.675781 283.09375 732.394531 301.8125 C 661.980469 310.488281 596.128906 315.96875 549.949219 277.609375 L 549.480469 540.621094 C 548.570312 611.84375 517.9375 664.8125 480.890625 699.964844 C 477.695312 703.164062 474.496094 706.359375 470.835938 709.097656 C 423.277344 749.28125 376.636719 768.003906 312.617188 767.546875 C 249.511719 766.636719 201.953125 742.890625 161.714844 708.1875 C 131.539062 682.164062 107.300781 648.371094 93.582031 601.796875 C 63.859375 499.527344 102.269531 399.984375 187.324219 342 C 188.699219 340.625 190.519531 339.25 192.355469 338.34375 C 231.222656 311.402344 291.585938 295.421875 347.828125 304.554688 L 347.828125 433.320312 C 308.960938 423.269531 274.207031 431.945312 248.597656 453.402344 C 248.144531 453.402344 248.144531 453.867188 247.679688 454.316406 C 222.996094 475.320312 208.8125 506.375 210.644531 541.527344 C 215.21875 604.542969 267.347656 643.808594 324.050781 641.070312 C 324.050781 641.070312 324.507812 641.070312 324.507812 641.070312 C 379.378906 635.589844 424.648438 590.847656 423.277344 530.570312 Z M 423.730469 32.421875 " fill-opacity="1" fill-rule="evenodd"/><path fill="#25f4ee" d="M 395.417969 0.453125 L 521.636719 0 C 519.347656 87.207031 690.363281 251.128906 704.078125 269.847656 C 633.667969 278.523438 567.816406 284.003906 521.636719 245.644531 L 521.167969 508.65625 C 520.257812 579.878906 489.625 632.84375 452.578125 668 C 449.382812 671.199219 446.183594 674.394531 442.523438 677.128906 C 394.964844 717.316406 348.324219 736.035156 284.304688 735.578125 C 221.199219 734.671875 173.640625 710.921875 133.402344 676.222656 C 103.226562 650.199219 78.988281 616.40625 65.269531 569.828125 C 35.546875 467.5625 73.957031 368.015625 159.011719 310.035156 C 160.386719 308.660156 162.207031 307.285156 164.042969 306.375 C 202.910156 279.4375 263.273438 263.457031 319.515625 272.589844 L 319.515625 401.355469 C 280.648438 391.304688 245.894531 399.980469 220.285156 421.433594 C 219.832031 421.433594 219.832031 421.902344 219.367188 422.351562 C 194.683594 443.355469 180.5 474.410156 182.332031 509.5625 C 186.90625 572.578125 239.035156 611.839844 295.738281 609.105469 C 295.738281 609.105469 296.195312 609.105469 296.195312 609.105469 C 351.066406 603.621094 396.335938 558.878906 394.964844 498.605469 Z M 395.417969 0.453125 " fill-opacity="1" fill-rule="evenodd"/><g clip-path="url(#5bcf793950)"><g clip-path="url(#ac8355289e)"><path fill="#000000" d="M 428.503906 32.433594 L 554.71875 31.976562 C 552.433594 119.1875 723.445312 283.109375 737.164062 301.828125 C 666.753906 310.503906 600.898438 315.984375 554.71875 277.625 L 554.253906 540.632812 C 553.34375 611.859375 522.710938 664.824219 485.660156 699.980469 C 482.464844 703.179688 479.269531 706.375 475.605469 709.109375 C 428.050781 749.296875 381.40625 768.015625 317.390625 767.558594 C 254.285156 766.652344 206.722656 742.902344 166.488281 708.203125 C 136.3125 682.179688 112.070312 648.386719 98.351562 601.808594 C 68.628906 499.539062 107.042969 399.996094 192.09375 342.015625 C 193.472656 340.640625 195.292969 339.265625 197.125 338.355469 C 235.992188 311.417969 296.359375 295.4375 352.597656 304.566406 L 352.597656 433.332031 C 313.730469 423.285156 278.976562 431.960938 253.371094 453.414062 C 252.917969 453.414062 252.917969 453.878906 252.449219 454.332031 C 227.765625 475.335938 213.582031 506.390625 215.417969 541.542969 C 219.988281 604.558594 272.117188 643.820312 328.820312 641.085938 C 328.820312 641.085938 329.277344 641.085938 329.277344 641.085938 C 384.152344 635.601562 429.421875 590.859375 428.050781 530.585938 Z M 428.503906 32.433594 " fill-opacity="1" fill-rule="evenodd"/></g></g></svg>