<svg xmlns="http://www.w3.org/2000/svg" xmlns:xlink="http://www.w3.org/1999/xlink" width="1024" zoomAndPan="magnify" viewBox="0 0 768 767.999994" height="1024" preserveAspectRatio="xMidYMid meet" version="1.0"><path fill="#000000" d="M 130.015625 0 L 637.96875 0 C 673.734375 0 706.242188 14.625 729.800781 38.1875 C 753.355469 61.742188 767.980469 94.253906 767.980469 130.015625 L 767.980469 637.96875 C 767.980469 673.734375 753.355469 706.242188 729.800781 729.800781 C 706.238281 753.355469 673.730469 767.980469 637.96875 767.980469 L 130.015625 767.980469 C 94.25 767.980469 61.742188 753.355469 38.1875 729.800781 C 14.625 706.238281 0 673.730469 0 637.96875 L 0 130.015625 C 0 94.25 14.625 61.742188 38.1875 38.1875 C 61.742188 14.625 94.25 0 130.015625 0 Z M 637.96875 21 L 130.015625 21 C 100.046875 21 72.789062 33.269531 53.03125 53.03125 C 33.269531 72.789062 21 100.046875 21 130.015625 L 21 637.96875 C 21 667.941406 33.269531 695.191406 53.03125 714.953125 C 72.789062 734.714844 100.046875 746.984375 130.015625 746.984375 L 637.96875 746.984375 C 667.941406 746.984375 695.195312 734.71875 714.953125 714.953125 C 734.714844 695.191406 746.984375 667.941406 746.984375 637.96875 L 746.984375 130.015625 C 746.984375 100.046875 734.71875 72.789062 714.953125 53.03125 C 695.191406 33.269531 667.941406 21 637.96875 21 Z M 637.96875 21 " fill-opacity="1" fill-rule="nonzero"/><path fill="#000000" d="M 153.441406 47.261719 L 614.539062 47.261719 C 643.75 47.261719 670.296875 59.207031 689.535156 78.445312 C 708.773438 97.6875 720.71875 124.234375 720.71875 153.441406 L 720.71875 614.539062 C 720.71875 643.75 708.777344 670.296875 689.535156 689.535156 C 670.292969 708.773438 643.75 720.71875 614.539062 720.71875 L 153.441406 720.71875 C 124.234375 720.71875 97.683594 708.777344 78.445312 689.535156 C 59.210938 670.292969 47.261719 643.75 47.261719 614.539062 L 47.261719 153.441406 C 47.261719 124.234375 59.207031 97.683594 78.445312 78.445312 C 97.683594 59.207031 124.234375 47.261719 153.441406 47.261719 Z M 614.539062 68.265625 L 153.441406 68.265625 C 130.03125 68.265625 108.734375 77.847656 93.292969 93.292969 C 77.851562 108.730469 68.261719 130.03125 68.261719 153.441406 L 68.261719 614.539062 C 68.261719 637.953125 77.847656 659.246094 93.292969 674.691406 C 108.730469 690.128906 130.03125 699.71875 153.441406 699.71875 L 614.539062 699.71875 C 637.953125 699.71875 659.246094 690.132812 674.691406 674.691406 C 690.128906 659.25 699.71875 637.953125 699.71875 614.539062 L 699.71875 153.441406 C 699.71875 130.03125 690.132812 108.734375 674.691406 93.292969 C 659.25 77.851562 637.953125 68.265625 614.539062 68.265625 Z M 614.539062 68.265625 " fill-opacity="1" fill-rule="nonzero"/><path fill="#000000" d="M 169.019531 173.765625 L 305.410156 173.765625 C 309.140625 173.765625 312.414062 175.710938 314.277344 178.648438 L 607.402344 577.527344 C 610.824219 582.195312 609.808594 588.75 605.148438 592.171875 C 603.28125 593.539062 601.105469 594.199219 598.957031 594.195312 L 598.957031 594.222656 L 462.570312 594.222656 C 458.839844 594.222656 455.5625 592.273438 453.699219 589.339844 L 160.574219 190.457031 C 157.15625 185.792969 158.167969 179.234375 162.828125 175.816406 C 164.695312 174.449219 166.871094 173.785156 169.019531 173.792969 Z M 300.125 194.765625 L 189.738281 194.765625 L 467.851562 573.222656 L 578.238281 573.222656 Z M 300.125 194.765625 " fill-opacity="1" fill-rule="nonzero"/><path fill="#000000" d="M 498.207031 173.757812 L 569.40625 173.757812 C 575.207031 173.757812 579.902344 178.460938 579.902344 184.257812 C 579.902344 187.019531 578.835938 189.53125 577.089844 191.410156 L 441.601562 364.816406 C 438.046875 369.367188 431.46875 370.175781 426.921875 366.621094 C 426.144531 366.015625 425.476562 365.320312 424.921875 364.566406 L 390.402344 317.613281 C 387.445312 313.578125 387.800781 308.128906 390.96875 304.511719 L 489.960938 177.820312 C 492.019531 175.179688 495.09375 173.800781 498.203125 173.800781 L 498.203125 173.757812 Z M 547.925781 194.761719 L 503.277344 194.761719 L 411.988281 311.601562 L 433.628906 341.046875 Z M 370.960938 455.238281 L 265.542969 590.160156 C 263.484375 592.796875 260.410156 594.175781 257.300781 594.175781 L 257.300781 594.21875 L 186.097656 594.21875 C 180.296875 594.21875 175.601562 589.515625 175.601562 583.71875 C 175.601562 580.957031 176.667969 578.445312 178.414062 576.570312 L 320.328125 394.933594 C 323.882812 390.386719 330.460938 389.574219 335.007812 393.128906 C 335.785156 393.738281 336.453125 394.429688 337.007812 395.1875 L 371.527344 442.140625 C 374.484375 446.175781 374.128906 451.625 370.960938 455.238281 Z M 252.230469 573.222656 L 349.945312 448.15625 L 328.304688 418.707031 L 207.582031 573.222656 L 252.234375 573.222656 Z M 252.230469 573.222656 " fill-opacity="1" fill-rule="nonzero"/></svg>