<svg xmlns="http://www.w3.org/2000/svg" xmlns:xlink="http://www.w3.org/1999/xlink" width="1024" zoomAndPan="magnify" viewBox="0 0 768 767.999994" height="1024" preserveAspectRatio="xMidYMid meet" version="1.0"><defs><clipPath id="163bf9ab1c"><path d="M 1 85 L 766 85 L 766 685.289062 L 1 685.289062 Z M 1 85 " clip-rule="nonzero"/></clipPath></defs><g clip-path="url(#163bf9ab1c)"><path fill="#000000" d="M 491.960938 685.289062 C 484.796875 685.289062 477.871094 682.898438 472.136719 678.359375 L 331.453125 567.945312 L 259.320312 669.515625 C 257.167969 672.625 253.347656 673.578125 250.003906 672.382812 C 246.660156 670.949219 244.507812 667.605469 244.988281 664.019531 L 267.199219 475.21875 C 267.441406 473.070312 268.394531 471.15625 270.066406 469.960938 L 526.355469 259.414062 L 233.761719 416.429688 L 233.761719 545.480469 C 233.761719 549.304688 230.894531 552.652344 227.3125 553.367188 C 223.492188 554.085938 219.667969 551.933594 218.234375 548.351562 L 160.195312 397.789062 L 18.792969 323.460938 C 6.851562 317.25 0.164062 304.34375 1.597656 290.960938 C 3.269531 277.578125 12.582031 266.582031 25.71875 263.238281 L 725.320312 86.148438 C 737.503906 83.039062 749.921875 87.101562 758.042969 96.664062 C 766.164062 106.222656 767.835938 119.367188 762.820312 130.835938 L 521.578125 665.933594 C 517.519531 675.011719 509.398438 681.707031 499.84375 684.09375 C 497.214844 685.050781 494.589844 685.289062 491.960938 685.289062 Z M 329.78125 548.351562 C 331.453125 548.351562 333.363281 548.828125 334.796875 550.023438 L 481.929688 665.691406 C 485.992188 668.800781 491.007812 669.996094 495.785156 668.800781 C 500.800781 667.605469 504.621094 664.257812 506.769531 659.71875 L 748.011719 124.625 C 750.640625 118.886719 749.683594 112.4375 745.625 107.417969 C 741.5625 102.398438 735.351562 100.484375 729.144531 102.160156 L 29.542969 279.25 C 21.421875 281.160156 18.078125 287.851562 17.359375 293.109375 C 16.644531 298.605469 18.554688 305.539062 25.960938 309.363281 L 169.988281 384.882812 C 171.660156 385.839844 173.09375 387.273438 173.808594 389.183594 L 217.519531 502.226562 L 217.519531 411.648438 C 217.519531 408.78125 219.191406 405.914062 221.820312 404.480469 L 591.085938 205.878906 C 594.667969 203.96875 599.207031 204.925781 601.59375 208.507812 C 603.984375 211.855469 603.265625 216.632812 599.921875 219.261719 L 282.25 480.238281 L 264.09375 634.625 L 323.09375 551.933594 C 324.285156 550.261719 326.199219 549.066406 328.585938 548.589844 C 329.0625 548.351562 329.300781 548.351562 329.78125 548.351562 Z M 329.78125 548.351562 " fill-opacity="1" fill-rule="nonzero"/></g></svg>